<?xml version="1.0" encoding="UTF-8" standalone="no"?>
<!-- Created with Inkscape (http://www.inkscape.org/) -->

<svg
   width="16"
   height="16"
   viewBox="0 0 16 16"
   version="1.1"
   id="svg1"
   inkscape:version="1.3.2 (091e20ef0f, 2023-11-25)"
   sodipodi:docname="coins.svg"
   xmlns:inkscape="http://www.inkscape.org/namespaces/inkscape"
   xmlns:sodipodi="http://sodipodi.sourceforge.net/DTD/sodipodi-0.dtd"
   xmlns="http://www.w3.org/2000/svg"
   xmlns:svg="http://www.w3.org/2000/svg">
  <sodipodi:namedview
     id="namedview1"
     pagecolor="#505050"
     bordercolor="#ffffff"
     borderopacity="1"
     inkscape:showpageshadow="0"
     inkscape:pageopacity="0"
     inkscape:pagecheckerboard="1"
     inkscape:deskcolor="#505050"
     inkscape:document-units="px"
     inkscape:zoom="7.1268238"
     inkscape:cx="17.609528"
     inkscape:cy="-5.8932284"
     inkscape:window-width="1366"
     inkscape:window-height="697"
     inkscape:window-x="0"
     inkscape:window-y="0"
     inkscape:window-maximized="1"
     inkscape:current-layer="layer1" />
  <defs
     id="defs1" />
  <g
     inkscape:label="Camada 1"
     inkscape:groupmode="layer"
     id="layer1"
     transform="translate(6.6549402)">
    <path
       style="fill:#ffffff;stroke-width:0.0801335"
       d="m -2.054948,15.933723 c -1.7649153,-0.16576 -3.2576412,-0.67869 -4.0197515,-1.38126 -0.4752201,-0.43811 -0.5802387,-0.71071 -0.5802387,-1.50626 v -0.65425 l 0.2600001,0.19894 c 0.8768265,0.6709 2.3653365,1.13378 4.3168375,1.34241 1.3724085,0.14672 2.7766504,0.079 4.2631372,-0.20557 1.1628196,-0.22262 2.2749389,-0.65858 2.8999877,-1.13684 l 0.2600001,-0.19894 v 0.65425 c 0,0.79555 -0.1049987,1.06815 -0.5802287,1.50626 -1.1777497,1.08574 -3.9619648,1.64966 -6.8197437,1.38126 z m -0.4055532,-3.04484 c -1.4325273,-0.18775 -2.7776969,-0.66729 -3.4744359,-1.2386 -0.5698036,-0.46724 -0.7152171,-0.7903 -0.7178981,-1.59498 l -0.00199,-0.6299503 0.2600002,0.17472 c 0.5667738,0.38086 1.6026581,0.8128403 2.3906418,0.9969403 3.2799664,0.76628 7.0867902,0.34873 9.0893205,-0.9969403 l 0.2600002,-0.17472 v 0.6082603 c 0,0.36317 -0.050132,0.73404 -0.1244836,0.92043 -0.1299652,0.3259 -0.727815,0.8751 -1.2355164,1.13497 -0.5279437,0.27023 -1.7203145,0.62611 -2.5295371,0.75496 -0.861438,0.13717 -3.0229464,0.16196 -3.9159985,0.0449 z m 8.863048,-3.2158903 0.02252,-0.97644 0.800004,-0.2559 c 0.779512,-0.24934 1.331186,-0.50159 1.859987,-0.85046 l 0.26,-0.17153 v 0.65322 c 0,0.96053 -0.229263,1.32415 -1.207829,1.91566 -0.296359,0.1791403 -1.141132,0.5141003 -1.534636,0.6085103 l -0.222485,0.0534 z m -8.2975001,0.28201 c -1.9910288,-0.20302 -3.6591479,-0.82544 -4.3912386,-1.63849 -0.9521943,-1.0575 0.1220915,-2.33301 2.4678037,-2.93004 2.5087865,-0.63853 5.9424189,-0.42434 7.7281046,0.48208 0.5332859,0.27069 1.1148003,0.76859 1.2822003,1.09783 0.2682525,0.52757 0.1657056,0.94748 -0.3602647,1.47521 -0.9337162,0.93685 -2.7158737,1.46018 -5.1666045,1.51719 -0.6819983,0.0159 -1.3839997,0.0141 -1.5600008,-0.004 z m 8.2485331,-2.487 c -0.02671,-0.0698 -0.049335,-0.20529 -0.050331,-0.30101 -0.00199,-0.23413 -0.288346,-0.85386 -0.4968579,-1.07672 -0.09279,-0.0992 -0.1512739,-0.19776 -0.1299852,-0.21911 0.021229,-0.0213 0.4662701,-0.14718 0.9888721,-0.2796 0.985174,-0.24964 1.917136,-0.64275 2.40016,-1.01241 l 0.279554,-0.21394 v 0.64644 c 0,0.35554 -0.03817,0.74812 -0.08482,0.87241 -0.203689,0.54299 -1.116315,1.20382 -2.132695,1.54427 -0.597122,0.20001 -0.710423,0.20581 -0.77397,0.0397 z m -2.4372156,-2.69593 c -0.8954143,-0.41259 -3.1110815,-0.78873 -4.6508201,-0.78954 l -0.7604957,-4e-4 -0.4580276,-0.37303 c -0.8080665,-0.65809 -0.9024906,-1.33109 -0.2815979,-2.00694 0.3889488,-0.42336 0.7754257,-0.66342003 1.5404662,-0.95684003 2.6195161,-1.00468 6.8931777,-0.81118 8.9628937,0.40582003 0.476017,0.27989 0.976423,0.85794 1.040808,1.20229 0.106304,0.56853 -0.264186,1.13918 -1.084572,1.67053 -0.63968,0.41431 -2.2544472,0.86764 -3.4399908,0.96574 -0.4149418,0.0343 -0.5904347,0.0106 -0.8686638,-0.11763 z"
       id="path9" />
  </g>
</svg>
