<?xml version="1.0" encoding="UTF-8" standalone="no"?>
<!-- Created with Inkscape (http://www.inkscape.org/) -->

<svg
   width="16"
   height="16"
   viewBox="0 0 16 16"
   version="1.1"
   id="svg1"
   inkscape:version="1.3.2 (091e20ef0f, 2023-11-25)"
   sodipodi:docname="falling.svg"
   xmlns:inkscape="http://www.inkscape.org/namespaces/inkscape"
   xmlns:sodipodi="http://sodipodi.sourceforge.net/DTD/sodipodi-0.dtd"
   xmlns="http://www.w3.org/2000/svg"
   xmlns:svg="http://www.w3.org/2000/svg">
  <sodipodi:namedview
     id="namedview1"
     pagecolor="#505050"
     bordercolor="#ffffff"
     borderopacity="1"
     inkscape:showpageshadow="0"
     inkscape:pageopacity="0"
     inkscape:pagecheckerboard="1"
     inkscape:deskcolor="#505050"
     inkscape:document-units="px"
     inkscape:zoom="7.1268238"
     inkscape:cx="9.8922047"
     inkscape:cy="12.207402"
     inkscape:window-width="1366"
     inkscape:window-height="697"
     inkscape:window-x="0"
     inkscape:window-y="0"
     inkscape:window-maximized="1"
     inkscape:current-layer="layer1" />
  <defs
     id="defs1" />
  <g
     inkscape:label="Camada 1"
     inkscape:groupmode="layer"
     id="layer1"
     transform="translate(6.6549402)">
    <path
       style="fill:#ffffff;stroke-width:0.115904"
       d="M 8.1510823,15.80172 C 7.6336115,15.70512 6.7757016,15.553 6.2446215,15.46364 5.6740128,15.36764 5.2790118,15.23953 5.2790118,15.1505 c 0,-0.0828 0.2669895,-0.51961 0.5933155,-0.97056 L 6.4656354,13.36002 4.2881987,10.38001 2.1107548,7.4000097 1.0934749,8.7885797 c -0.55951088,0.76372 -1.08674328,1.3885703 -1.17162674,1.3885703 -0.08489075,0 -1.59939526,-1.9483603 -3.36556396,-4.3296903 L -6.6549402,1.5177697 -6.1122658,0.75888968 -5.5695841,-3.1556058e-7 -2.8428364,3.7328897 l 2.72675496,3.73289 1.03690548,-1.42504 c 0.57030206,-0.78377 1.10265256,-1.42504 1.18300926,-1.42504 0.080357,0 1.3400138,1.63112 2.7992338,3.62471 L 7.5561972,11.86512 8.1288575,11.08896 c 0.4683046,-0.63471 0.8048595,-0.94066 0.8165049,-0.74225 0.00146,0.0187 0.1080136,1.25472 0.2375875,2.74681 0.2252121,2.59333 0.2197727,2.973 -0.041471,2.89801 -0.027233,-0.008 -0.4729044,-0.0932 -0.9903678,-0.18981 z"
       id="path8" />
  </g>
</svg>
