<?xml version="1.0" encoding="UTF-8" standalone="no"?>
<!-- Created with Inkscape (http://www.inkscape.org/) -->

<svg
   width="16"
   height="16"
   viewBox="0 0 16 16"
   version="1.1"
   id="svg1"
   inkscape:version="1.3.2 (091e20ef0f, 2023-11-25)"
   sodipodi:docname="trending.svg"
   xmlns:inkscape="http://www.inkscape.org/namespaces/inkscape"
   xmlns:sodipodi="http://sodipodi.sourceforge.net/DTD/sodipodi-0.dtd"
   xmlns="http://www.w3.org/2000/svg"
   xmlns:svg="http://www.w3.org/2000/svg">
  <sodipodi:namedview
     id="namedview1"
     pagecolor="#505050"
     bordercolor="#ffffff"
     borderopacity="1"
     inkscape:showpageshadow="0"
     inkscape:pageopacity="0"
     inkscape:pagecheckerboard="1"
     inkscape:deskcolor="#505050"
     inkscape:document-units="px"
     inkscape:zoom="14.253648"
     inkscape:cx="4.1743701"
     inkscape:cy="5.9633858"
     inkscape:window-width="1366"
     inkscape:window-height="697"
     inkscape:window-x="0"
     inkscape:window-y="0"
     inkscape:window-maximized="1"
     inkscape:current-layer="layer1" />
  <defs
     id="defs1" />
  <g
     inkscape:label="Camada 1"
     inkscape:groupmode="layer"
     id="layer1"
     transform="translate(-0.78380275)">
    <path
       style="fill:#ffffff;stroke-width:0.0829012"
       d="M 5.6280666,15.837783 C 3.4867976,15.252675 2.1826585,14.043833 1.6890417,12.186538 1.5115175,11.518621 1.5310577,10.41005 1.7317503,9.760161 2.0675608,8.672944 3.1009046,7.440177 4.5917634,6.348198 5.3844538,5.7676256 6.0867721,4.9848488 6.3498306,4.3887805 6.8707015,3.2085493 6.6821261,1.7972381 5.8346629,0.5334417 5.6379388,0.2401508 5.4904618,0 5.5069405,0 c 0.1033322,0 1.0316696,0.2063619 1.7275778,0.3841884 1.282048,0.3273065 2.404906,0.7391232 3.5748577,1.3107759 2.904675,1.4192481 4.472459,3.2672074 5.010058,5.9052377 0.600075,2.944512 -0.299716,5.366241 -2.636632,7.095485 -0.433133,0.320504 -1.978542,1.105057 -2.045288,1.038348 -0.0189,-0.0189 0.113763,-0.329574 0.293669,-0.691955 0.494626,-0.996546 0.618329,-1.557881 0.620144,-2.814118 10e-4,-0.838941 -0.03402,-1.17872 -0.153827,-1.533654 C 11.603075,9.830044 11.154597,9.24403 10.593942,8.99118 10.204727,8.81581 10.134541,8.858518 10.296116,9.17373 c 0.189732,0.36926 0.329196,1.18488 0.277795,1.620848 -0.06312,0.5345 -0.302362,1.049876 -0.6823547,1.470348 -0.46148,0.51084 -0.879041,0.703066 -1.527948,0.703369 -0.633523,3.4e-4 -0.889491,-0.116032 -1.4477717,-0.658733 -0.2162642,-0.210142 -0.4090765,-0.366236 -0.4284882,-0.34696 -0.019276,0.0189 -0.09411,0.34696 -0.1659587,0.728124 -0.1704565,0.903873 -0.1217384,2.174775 0.1086234,2.832563 L 6.5969546,16 6.381862,15.9924 C 6.2635252,15.9886 5.924264,15.9187 5.6278815,15.837818 Z"
       id="path7" />
  </g>
</svg>
