<?xml version="1.0" encoding="UTF-8" standalone="no"?>
<!-- Created with Inkscape (http://www.inkscape.org/) -->

<svg
   width="32"
   height="32"
   viewBox="0 0 32 32"
   version="1.1"
   id="svg1"
   inkscape:version="1.3.2 (091e20ef0f, 2023-11-25)"
   sodipodi:docname="cryptohub.svg"
   xmlns:inkscape="http://www.inkscape.org/namespaces/inkscape"
   xmlns:sodipodi="http://sodipodi.sourceforge.net/DTD/sodipodi-0.dtd"
   xmlns="http://www.w3.org/2000/svg"
   xmlns:svg="http://www.w3.org/2000/svg">
  <sodipodi:namedview
     id="namedview1"
     pagecolor="#505050"
     bordercolor="#ffffff"
     borderopacity="1"
     inkscape:showpageshadow="0"
     inkscape:pageopacity="0"
     inkscape:pagecheckerboard="1"
     inkscape:deskcolor="#505050"
     inkscape:document-units="px"
     inkscape:zoom="7.1268238"
     inkscape:cx="33.605433"
     inkscape:cy="22.310079"
     inkscape:window-width="1366"
     inkscape:window-height="697"
     inkscape:window-x="0"
     inkscape:window-y="0"
     inkscape:window-maximized="1"
     inkscape:current-layer="layer1" />
  <defs
     id="defs1" />
  <g
     inkscape:label="Camada 1"
     inkscape:groupmode="layer"
     id="layer1">
    <rect
       style="fill:#000000;stroke-width:1.05856;stroke-opacity:0.2"
       id="rect1"
       width="32"
       height="32"
       x="-4.4408921e-15"
       y="0"
       ry="16" />
    <path
       style="fill:#ffffff;fill-opacity:1;stroke-width:0.0977678"
       d="M 11.871608,25.663482 C 9.7147018,25.461582 7.8904391,24.83682 6.9590629,23.981071 6.3782957,23.447441 6.2499522,23.115407 6.2499522,22.146406 v -0.796894 l 0.3177466,0.242314 c 1.071571,0.817174 2.8906815,1.380975 5.2756142,1.635091 1.677222,0.178709 3.393349,0.09623 5.209986,-0.250389 1.421084,-0.271157 2.780207,-0.802168 3.54408,-1.384702 l 0.317747,-0.242314 v 0.796894 c 0,0.969001 -0.128319,1.301035 -0.709099,1.834665 -1.43933,1.32246 -4.841923,2.009329 -8.334419,1.682411 z M 11.37598,21.954786 C 9.6252865,21.726102 7.9813526,21.142009 7.1298668,20.446139 6.4335088,19.877028 6.2557988,19.483532 6.2525223,18.503411 l -0.00244,-0.767296 0.3177466,0.212813 c 0.6926552,0.463898 1.958611,0.990061 2.9216072,1.2143 4.0084519,0.933349 8.6607779,0.424762 11.1080729,-1.2143 l 0.317747,-0.212813 v 0.740877 c 0,0.44235 -0.06127,0.89408 -0.152132,1.121108 -0.15883,0.396955 -0.889464,1.065895 -1.509926,1.382423 -0.645201,0.329148 -2.102399,0.762619 -3.091352,0.919562 -1.052764,0.167076 -3.694347,0.197271 -4.785748,0.05469 z m 10.831545,-3.917039 0.02753,-1.18933 0.977686,-0.311693 c 0.952643,-0.303703 1.626845,-0.61095 2.273093,-1.035883 l 0.317747,-0.208928 v 0.795639 c 0,1.169951 -0.280183,1.61285 -1.47609,2.333325 -0.36218,0.218197 -1.39458,0.626188 -1.875481,0.741181 l -0.2719,0.06504 z M 12.067137,18.381243 C 9.6338979,18.133959 7.5952869,17.375835 6.7005977,16.385518 5.5369195,15.097455 6.8498059,13.54385 9.7165045,12.816652 c 3.0659925,-0.777747 7.2622395,-0.516858 9.4445295,0.587186 0.651729,0.329708 1.362399,0.936163 1.566978,1.337186 0.327832,0.642594 0.20251,1.154056 -0.44028,1.796845 -1.141096,1.141108 -3.319073,1.778538 -6.314115,1.847978 -0.833471,0.01937 -1.691388,0.01717 -1.90648,-0.0049 z m 10.080546,-3.029232 c -0.03264,-0.08502 -0.06029,-0.250049 -0.06151,-0.366639 -0.0024,-0.285176 -0.352387,-1.040024 -0.607211,-1.311473 -0.113398,-0.120828 -0.184872,-0.240877 -0.158855,-0.266882 0.02594,-0.02594 0.56983,-0.179269 1.208502,-0.34056 1.203983,-0.304068 2.342935,-0.782887 2.933239,-1.233142 l 0.341645,-0.260585 v 0.787381 c 0,0.433057 -0.04665,0.91123 -0.103655,1.062619 -0.248928,0.661376 -1.36425,1.466284 -2.606369,1.880961 -0.729744,0.243618 -0.86821,0.250682 -0.945871,0.04836 z M 19.169158,12.068296 C 18.074871,11.565751 15.3671,11.107602 13.485383,11.106616 l -0.929403,-4.88e-4 -0.559756,-0.45436 C 11.008684,9.8501969 10.893289,9.030465 11.652083,8.2072618 12.127417,7.691598 12.599732,7.3991986 13.534689,7.0418053 c 3.201315,-1.2237269 8.424164,-0.9880388 10.953566,0.4942995 0.581742,0.3409134 1.193289,1.0449937 1.271973,1.4644211 0.129915,0.6924846 -0.322862,1.3875511 -1.325456,2.0347501 -0.781754,0.50464 -2.755164,1.056808 -4.204019,1.176297 -0.507101,0.04178 -0.721571,0.01291 -1.061595,-0.143277 z"
       id="path9" />
  </g>
</svg>
