<?xml version="1.0" encoding="UTF-8" standalone="no"?>
<!-- Created with Inkscape (http://www.inkscape.org/) -->

<svg
   width="32"
   height="32"
   viewBox="0 0 32 32"
   version="1.1"
   id="svg1"
   inkscape:version="1.3.2 (091e20ef0f, 2023-11-25)"
   sodipodi:docname="propHolder.svg"
   xmlns:inkscape="http://www.inkscape.org/namespaces/inkscape"
   xmlns:sodipodi="http://sodipodi.sourceforge.net/DTD/sodipodi-0.dtd"
   xmlns="http://www.w3.org/2000/svg"
   xmlns:svg="http://www.w3.org/2000/svg">
  <sodipodi:namedview
     id="namedview1"
     pagecolor="#505050"
     bordercolor="#ffffff"
     borderopacity="1"
     inkscape:showpageshadow="0"
     inkscape:pageopacity="0"
     inkscape:pagecheckerboard="1"
     inkscape:deskcolor="#505050"
     inkscape:document-units="px"
     showguides="true"
     inkscape:zoom="9.8994949"
     inkscape:cx="24.243661"
     inkscape:cy="21.970818"
     inkscape:window-width="1366"
     inkscape:window-height="697"
     inkscape:window-x="0"
     inkscape:window-y="0"
     inkscape:window-maximized="1"
     inkscape:current-layer="layer1">
    <sodipodi:guide
       position="16,31.114267"
       orientation="1,0"
       id="guide1"
       inkscape:locked="false" />
  </sodipodi:namedview>
  <defs
     id="defs1" />
  <g
     inkscape:label="Camada 1"
     inkscape:groupmode="layer"
     id="layer1">
    <ellipse
       style="fill:#333333;stroke:#ffffff;stroke-width:1.77147;stroke-linecap:round;stroke-opacity:1"
       id="path1"
       cx="16"
       cy="16"
       rx="15.114266"
       ry="15.114267" />
    <path
       d="m 17.170511,21.23448 c -1.075611,0 -2.048405,-0.245176 -2.918384,-0.735528 -0.869979,-0.506169 -1.565963,-1.225879 -2.08795,-2.159129 -0.506169,-0.949068 -0.759254,-2.103767 -0.759254,-3.464098 0,-1.360331 0.253085,-2.507122 0.759254,-3.440372 0.50617,-0.949068 1.194244,-1.6687779 2.064223,-2.1591296 0.869979,-0.4903518 1.850683,-0.7355277 2.942111,-0.7355277 1.186335,0 2.246128,0.2689026 3.179378,0.8067078 0.949068,0.5219877 1.692505,1.2654245 2.23031,2.2303095 0.537805,0.949068 0.806707,2.048405 0.806707,3.298012 0,1.265424 -0.268902,2.37267 -0.806707,3.321738 -0.537805,0.949068 -1.281242,1.692504 -2.23031,2.230309 -0.93325,0.537805 -1.993043,0.806708 -3.179378,0.806708 z m -6.429936,7.750913 0,-20.3260638 h 1.613416 v 3.7488188 l -0.166087,2.491303 0.237267,2.51503 -0.05051,11.971186 z m 6.311303,-9.245695 c 0.885797,0 1.676687,-0.197722 2.37267,-0.593167 0.695983,-0.411263 1.249605,-0.980704 1.660868,-1.708323 0.411263,-0.743437 0.616895,-1.597598 0.616895,-2.562483 0,-0.964886 -0.205632,-1.811138 -0.616895,-2.538757 -0.411263,-0.727619 -0.964885,-1.29706 -1.660868,-1.708323 -0.695983,-0.411263 -1.486873,-0.616894 -2.37267,-0.616894 -0.885797,0 -1.684596,0.205631 -2.396397,0.616894 -0.695983,0.411263 -1.249606,0.980704 -1.660869,1.708323 -0.395445,0.727619 -0.593168,1.573871 -0.593168,2.538757 0,0.964885 0.197723,1.819046 0.593168,2.562483 0.411263,0.727619 0.964886,1.29706 1.660869,1.708323 0.711801,0.395445 1.5106,0.593167 2.396397,0.593167 z"
       id="text1"
       style="font-size:23.7267px;font-family:Montserrat;-inkscape-font-specification:Montserrat;text-align:justify;letter-spacing:0px;fill:none;stroke:#ffffff;stroke-width:1.69476;stroke-linecap:round;stroke-opacity:1"
       aria-label="p"
       sodipodi:nodetypes="sccscssccsscsccccccccsccssssccsccs" />
  </g>
</svg>
